<svg width="231" height="182" viewBox="0 0 461 363" fill="none" xmlns="http://www.w3.org/2000/svg">
<path d="M0 30C0 13.4315 13.4315 0 30 0H195C211.569 0 225 13.4315 225 30V30C225 46.5685 211.569 60 195 60H30C13.4315 60 0 46.5685 0 30V30Z" fill="#E8862B"/>
<path d="M166 0H196C212.569 0 226 13.4315 226 30V333C226 349.569 212.569 363 196 363H166V0Z" fill="#E86932"/>
<path d="M0 333C0 316.431 13.4315 303 30 303H226V333C226 349.569 212.569 363 196 363H30C13.4315 363 0 349.569 0 333V333Z" fill="#E85839"/>
<path d="M0 255C0 238.431 13.4315 225 30 225V225C46.5685 225 60 238.431 60 255V363H30C13.4315 363 0 349.569 0 333V255Z" fill="#FF3E13"/>
<path d="M235 30C235 13.4315 248.431 0 265 0H295V333C295 349.569 281.569 363 265 363V363C248.431 363 235 349.569 235 333V30Z" fill="#2BB7CA"/>
<path d="M235 30C235 13.4315 248.431 0 265 0H424C440.569 0 454 13.4315 454 30V60H235V30Z" fill="#1A92D6"/>
<path d="M401 0H431C447.569 0 461 13.4315 461 30V150C461 166.569 447.569 180 431 180H401V0Z" fill="#1E70EB"/>
<path d="M235 150C235 133.431 248.431 120 265 120H461V150C461 166.569 447.569 180 431 180H265C248.431 180 235 166.569 235 150V150Z" fill="#1963D1"/>
</svg>
